<?xml version="1.0" encoding="iso-8859-1"?>
<!-- Generator: Adobe Illustrator 19.0.0, SVG Export Plug-In . SVG Version: 6.00 Build 0)  -->
<svg version="1.1" id="Layer_1" xmlns="http://www.w3.org/2000/svg" xmlns:xlink="http://www.w3.org/1999/xlink" x="0px" y="0px"
	 viewBox="0 0 502 502" style="enable-background:new 0 0 502 502;" xml:space="preserve">
<g>
	<g>
		<g>
			<rect x="50.393" y="287.77" style="fill:#FBB03B;" width="401.215" height="133.095"/>
			<path style="fill:#FBB03B;" d="M451.607,58.326c0-22.054-17.878-39.933-39.933-39.933H90.325
				c-22.054,0-39.933,17.878-39.933,39.933v60.377h401.215V58.326z"/>
			<rect x="50.393" y="118.703" style="fill:#29ABE2;" width="401.215" height="169.067"/>
		</g>
		<rect x="136.255" y="50.357" style="fill:#CCCCCC;" width="230.219" height="35.972"/>
	</g>
	<g>
		<path style="fill:#333333;" d="M97.521,483.608h-5.995c-12.913,0-23.382-10.468-23.382-23.382v-39.361h52.759v39.361
			C120.902,473.14,110.434,483.608,97.521,483.608z"/>
		<path style="fill:#333333;" d="M410.475,483.608h-5.995c-12.913,0-23.382-10.468-23.382-23.382v-39.361h52.759v39.361
			C433.856,473.14,423.388,483.608,410.475,483.608z"/>
	</g>
	<circle style="fill:#CCCCCC;" cx="117.945" cy="355.288" r="21.593"/>
	<circle style="fill:#CCCCCC;" cx="384.055" cy="355.288" r="21.593"/>
	<rect x="451.833" y="197.135" style="fill:#FBB03B;" width="40.167" height="90.375"/>
	<g>
		<rect x="10" y="197.135" style="fill:#FBB03B;" width="40.167" height="90.375"/>
		<g>
			<path d="M366.475,40.357h-230.22c-5.523,0-10,4.477-10,10v35.972c0,5.523,4.477,10,10,10h230.22c5.522,0,10-4.477,10-10V50.357
				C376.475,44.834,371.997,40.357,366.475,40.357z M356.475,76.329h-210.22V60.357h210.22V76.329z"/>
			<path d="M89.492,165.874h143.887c5.523,0,10-4.477,10-10s-4.477-10-10-10H89.492c-5.523,0-10,4.477-10,10
				S83.969,165.874,89.492,165.874z"/>
			<path d="M274.146,165.874h17.986c5.522,0,10-4.477,10-10s-4.478-10-10-10h-17.986c-5.522,0-10,4.477-10,10
				S268.624,165.874,274.146,165.874z"/>
			<path d="M117.945,386.881c17.42,0,31.593-14.172,31.593-31.592s-14.172-31.593-31.593-31.593s-31.593,14.172-31.593,31.593
				C86.352,372.709,100.524,386.881,117.945,386.881z M117.945,343.696c6.392,0,11.593,5.201,11.593,11.593
				s-5.201,11.592-11.593,11.592s-11.593-5.2-11.593-11.592S111.553,343.696,117.945,343.696z"/>
			<path d="M384.055,386.881c17.42,0,31.593-14.172,31.593-31.592s-14.173-31.593-31.593-31.593s-31.592,14.172-31.592,31.593
				C352.463,372.709,366.635,386.881,384.055,386.881z M384.055,343.696c6.393,0,11.593,5.201,11.593,11.593
				s-5.2,11.592-11.593,11.592c-6.392,0-11.592-5.2-11.592-11.592S377.663,343.696,384.055,343.696z"/>
			<path d="M461.607,58.326c0-27.533-22.399-49.933-49.933-49.933H90.326c-27.533,0-49.933,22.4-49.933,49.933v128.809H10
				c-5.523,0-10,4.477-10,10v90.375c0,5.523,4.477,10,10,10h30.393v123.355c0,5.523,4.477,10,10,10h7.751v29.361
				c0,18.407,14.975,33.381,33.382,33.381h5.995c18.407,0,33.382-14.975,33.382-33.381v-29.361h240.195v29.361
				c0,18.407,14.975,33.381,33.382,33.381h5.995c18.407,0,33.382-14.975,33.382-33.381v-29.361h7.751c5.522,0,10-4.477,10-10V297.51
				H492c5.522,0,10-4.477,10-10v-90.375c0-5.523-4.478-10-10-10h-30.393V58.326z M60.393,410.866V297.771h381.215v113.095H60.393z
				 M441.607,277.771h-44.019c-0.53-0.284-1.088-0.531-1.681-0.721l-127.099-40.769c-5.261-1.688-10.891,1.209-12.577,6.468
				s1.209,10.89,6.468,12.576l69.977,22.445H230.919l-128.781-41.489c-5.261-1.688-10.89,1.208-12.576,6.468
				c-1.687,5.259,1.209,10.89,6.468,12.576l69.977,22.445H60.393V128.703h381.215v149.068H441.607z M60.393,58.326
				c0-16.505,13.428-29.933,29.933-29.933h321.349c16.505,0,29.933,13.428,29.933,29.933v50.377H60.393V58.326z M40.167,277.51H20
				v-70.375h20.167V277.51z M110.902,460.227c0,7.378-6.003,13.381-13.382,13.381h-5.995c-7.379,0-13.382-6.003-13.382-13.381
				v-29.361h32.759C110.902,430.866,110.902,460.227,110.902,460.227z M423.856,460.227c0,7.378-6.003,13.381-13.382,13.381h-5.995
				c-7.379,0-13.382-6.003-13.382-13.381v-29.361h32.759L423.856,460.227L423.856,460.227z M482,277.51h-20.167v-70.375H482V277.51z
				"/>
		</g>
	</g>
</g>
<g>
</g>
<g>
</g>
<g>
</g>
<g>
</g>
<g>
</g>
<g>
</g>
<g>
</g>
<g>
</g>
<g>
</g>
<g>
</g>
<g>
</g>
<g>
</g>
<g>
</g>
<g>
</g>
<g>
</g>
</svg>
